<svg width="91" height="43" viewBox="0 0 91 43" fill="none" xmlns="http://www.w3.org/2000/svg">
<path fill-rule="evenodd" clip-rule="evenodd" d="M36.7028 12.9893C38.4161 14.6974 39.273 17.2676 39.273 20.7003V34.0029H32.53V21.7018C32.6455 20.2359 32.2409 18.776 31.3866 17.5793C30.5678 16.6455 29.3632 16.1432 28.1235 16.2189C26.7079 16.1484 25.3331 16.7074 24.3682 17.7461C23.3344 19.0462 22.8278 20.6878 22.9495 22.3444V34.0279H16.2732V21.7018C16.2732 18.0465 14.8045 16.2189 11.8671 16.2189C10.4621 16.1561 9.10075 16.7144 8.14499 17.7461C7.13983 19.0465 6.64945 20.6717 6.76808 22.3112V33.9943H0V10.7612H6.43414V13.44C7.30329 12.4599 8.3853 11.692 9.59723 11.1949C10.922 10.6603 12.341 10.3965 13.7698 10.4191C15.3095 10.3974 16.834 10.7286 18.2262 11.387C19.5132 12.0207 20.6055 12.9893 21.389 14.1912C22.3451 12.9774 23.5823 12.0146 24.994 11.387C26.4941 10.7121 28.1232 10.3733 29.7676 10.3937C32.3381 10.2666 34.8474 11.2056 36.7028 12.9893Z" fill="#243642"/>
<path fill-rule="evenodd" clip-rule="evenodd" d="M56.4224 29.0121C57.319 28.4821 57.9948 27.6468 58.3254 26.6587V24.2888H53.6603C50.8977 24.2888 49.4875 25.1903 49.4875 27.0094C49.4613 27.8212 49.8434 28.5922 50.5058 29.0624C51.3295 29.6059 52.3075 29.8693 53.2929 29.8132C54.3767 29.8379 55.4459 29.5604 56.3806 29.0121H56.4224ZM62.1725 12.9893C64.1029 14.6974 65.0681 17.2813 65.0681 20.7421V34.0028H58.7173V31.1151C57.4492 33.2682 55.0873 34.3474 51.6323 34.3532C50.0349 34.3929 48.4485 34.0824 46.9837 33.4435C45.7618 32.9166 44.7185 32.0471 43.9795 30.9401C43.2964 29.8547 42.9482 28.5919 42.9783 27.3098C42.9015 25.3107 43.8164 23.4026 45.4232 22.2108C47.0423 20.9757 49.5961 20.3499 52.9342 20.3499H58.2921C58.3699 19.077 57.8774 17.8351 56.9482 16.9617C55.8009 16.088 54.3721 15.6662 52.9342 15.7766C51.6924 15.7757 50.4585 15.973 49.2789 16.3606C48.1786 16.6967 47.1487 17.2313 46.2412 17.9379L43.8127 13.2229C45.1982 12.2711 46.741 11.5703 48.3692 11.1534C50.1468 10.6615 51.983 10.4141 53.8272 10.419C57.4267 10.419 60.2085 11.2757 62.1725 12.9893Z" fill="#243642"/>
<path fill-rule="evenodd" clip-rule="evenodd" d="M63.9834 41.4382L65.8025 36.5564C66.6409 37.1251 67.6356 37.417 68.6484 37.391C69.4197 37.442 70.1711 37.134 70.6847 36.5564C71.2187 35.8354 71.4791 34.948 71.419 34.0529V10.7612H78.1536V33.9611C78.2832 36.3252 77.4494 38.6405 75.8416 40.3785C74.3064 41.9472 72.1534 42.7319 69.3828 42.7319C67.4938 42.8514 65.6128 42.4007 63.9834 41.4382Z" fill="#243642"/>
<path fill-rule="evenodd" clip-rule="evenodd" d="M83.5112 34.0029H90.2543V10.7612H83.5112V34.0029Z" fill="#243642"/>
<path fill-rule="evenodd" clip-rule="evenodd" d="M72.1013 6.43837C71.4106 5.758 71.0233 4.77998 71.0407 3.75957C71.0264 2.73976 71.4128 1.76296 72.1013 1.08045C72.8559 0.341828 73.8422 -0.0442572 74.851 0.00423218C75.8506 -0.0442572 76.8305 0.32536 77.5932 1.03898C78.2805 1.68642 78.6695 2.63821 78.6537 3.63423C78.6778 4.68757 78.2919 5.70188 77.5932 6.4216C76.0014 7.87933 73.693 7.87933 72.1013 6.4216V6.43837Z" fill="#C94DB5"/>
<path fill-rule="evenodd" clip-rule="evenodd" d="M84.1436 6.43837C83.4513 5.758 83.0633 4.77998 83.0807 3.75957C83.0666 2.73976 83.4538 1.76296 84.1436 1.08045C84.8958 0.345793 85.8779 -0.0396827 86.8833 0.00423218C87.8851 -0.0442572 88.8661 0.32536 89.6308 1.03898C90.3195 1.68642 90.7089 2.63821 90.6933 3.63423C90.7213 4.68849 90.3342 5.70463 89.6308 6.4216C88.0385 7.87811 85.7278 7.87811 84.1358 6.4216L84.1436 6.43837Z" fill="#C94DB5"/>
</svg>
