<svg xmlns="http://www.w3.org/2000/svg" width="124.773" height="56.971" viewBox="0 0 124.773 56.971"><defs><style>.a{fill:#ffb446;}.b{fill:#11151a;}.c{fill:#56b245;}.d{fill:#2ad5d0;}.e{fill:#fd6043;}.f{fill:#e54c82;}.g{fill:#fff;}</style></defs><g transform="translate(-3.877 -3)"><path class="a" d="M0,7H28.05V63.525H0Z" transform="translate(50.497 -4)"/><path class="a" d="M72.325,9.271,70,7.137V63.971h2.328V9.271Zm26-2.133L95.966,9.271v54.7h2.357ZM70.145,7H98.18L95.821,9.139H72.472Z" transform="translate(-19.633 -4)"/><path class="b" d="M77.14,38.763v0l-.117.051-.138.066a.716.716,0,0,1-.158.239.708.708,0,1,1-.5-1.206.714.714,0,0,1,.439.15c.085,0,.169,0,.251-.014v0l0,0h.006l.03,0h0l.077-.01a1.1,1.1,0,0,0-.1-.119.992.992,0,1,0,0,1.4.973.973,0,0,0,.285-.582Z" transform="translate(-20.663 -7.405)"/><path class="b" d="M80.033,38.826a3.038,3.038,0,0,0-2.893.008,2.224,2.224,0,0,1-.2.105c-.312.143-.871.319-.971-.22-.078-.678.8-.516,1.243-.588.608-.1,2.532-.358,3.292.036a.7.7,0,0,0-.466.659" transform="translate(-20.806 -7.47)"/><path class="b" d="M81.655,38.324a.193.193,0,0,1,.029.014.14.14,0,0,1,.06.112.331.331,0,0,1-.024.15.639.639,0,0,1-.082.159v0a.778.778,0,0,1-.216.218.275.275,0,0,1-.223.05.075.075,0,0,1-.03-.015.144.144,0,0,1-.061-.112.389.389,0,0,1,.023-.153.688.688,0,0,1,.084-.158.809.809,0,0,1,.215-.218.273.273,0,0,1,.225-.05" transform="translate(-21.82 -7.541)"/><g transform="translate(5.877 4.414)"><path class="c" d="M14.05,19.506c.137,2.887,1.925,3.815,4.642,3.815,1.925,0,3.919-.687,3.919-2.508,0-2.167-3.507-2.579-7.048-3.576-3.505-1-7.184-2.578-7.184-7.081,0-5.363,5.4-7.461,10-7.461,4.88,0,9.8,2.373,9.831,7.908H21.82c.1-2.236-1.994-2.958-3.954-2.958-1.374,0-3.094.482-3.094,2.1,0,1.889,3.541,2.234,7.115,3.231,3.542,1,7.117,2.646,7.117,7.081,0,6.223-5.294,8.216-10.692,8.216-5.638,0-10.623-2.475-10.656-8.766Z" transform="translate(-9.657 -2.695)"/><path class="d" d="M58.9,9.629H51.573V28.674H45.178V9.629H37.857v-5.5H58.9Z" transform="translate(-17.128 -3.025)"/><path class="e" d="M115.762,14.786h5.363a2.63,2.63,0,0,0,2.956-2.887c0-1.823-1.443-2.648-3.231-2.648h-5.088ZM109.368,4.129H121.88c4.332,0,8.595,1.959,8.595,6.91a6.312,6.312,0,0,1-3.85,6.154v.068c2.613.619,3.369,3.541,3.575,5.878.07,1.033.172,4.641,1.032,5.535h-6.326c-.55-.825-.651-3.231-.721-3.919-.173-2.474-.584-5.019-3.576-5.019h-4.847v8.938h-6.394Z" transform="translate(-33.245 -3.026)"/><path class="f" d="M142.434,4.129h19.56V9.25H148.828v4.3H160.86V18.5H148.828v4.675h13.51v5.5h-19.9Z" transform="translate(-41.15 -3.025)"/><path class="e" d="M41.6,60.444h2.97c4.759-.1,6.649-1.958,6.649-6.784,0-4.388-2.363-6.513-6.649-6.513H41.6Zm-6.277-18.7H45.684c7.39,0,11.811,4.49,11.811,11.947,0,7.9-4.488,12.149-11.811,12.149H35.322Z" transform="translate(-15.314 -10.848)"/><path class="d" d="M119.929,60.048c4.05,0,5.6-3.578,5.6-7.154s-1.553-7.156-5.6-7.156-5.6,3.577-5.6,7.156,1.552,7.154,5.6,7.154m0-19.709c7.594,0,11.88,5.568,11.88,12.555s-4.286,12.555-11.88,12.555-11.88-5.569-11.88-12.555,4.287-12.555,11.88-12.555" transform="translate(-32.926 -10.544)"/><path class="c" d="M148.746,52.209h5.265a2.583,2.583,0,0,0,2.9-2.834c0-1.789-1.419-2.6-3.172-2.6h-4.995Zm-6.277-10.462h12.284c4.252,0,8.437,1.924,8.437,6.784a6.194,6.194,0,0,1-3.78,6.04v.068c2.565.607,3.308,3.477,3.511,5.771.067,1.011.168,4.556,1.013,5.432h-6.211c-.54-.81-.64-3.172-.709-3.847-.169-2.431-.573-4.928-3.51-4.928h-4.757v8.774h-6.277Z" transform="translate(-41.161 -10.848)"/><path class="g" d="M6.534,65.287a10.474,10.474,0,0,1,3.7-7.873,46.647,46.647,0,0,1,6.178-4.141c1.8-1.188,3.087-2.343,3.087-3.936a2.807,2.807,0,0,0-3.054-2.951c-3.056,0-3.9,2.2-3.937,4.784H7.11c-.337-5.871,3.394-9.842,9.3-9.842,4.682,0,8.856,2.443,8.856,7.5,0,4.547-3.259,6.245-6.719,8.383a20.62,20.62,0,0,0-4.277,3.19H25.5v4.887Z" transform="translate(-8.239 -10.429)"/><path class="b" d="M119.929,60.048c4.05,0,5.6-3.578,5.6-7.154s-1.553-7.156-5.6-7.156-5.6,3.577-5.6,7.156,1.552,7.154,5.6,7.154m0-19.709c7.594,0,11.88,5.568,11.88,12.555s-4.286,12.555-11.88,12.555-11.88-5.569-11.88-12.555,4.287-12.555,11.88-12.555" transform="translate(-61.197 -10.544)"/><path class="b" d="M119.929,60.048c4.05,0,5.6-3.578,5.6-7.154s-1.553-7.156-5.6-7.156-5.6,3.577-5.6,7.156,1.552,7.154,5.6,7.154m0-19.709c7.594,0,11.88,5.568,11.88,12.555s-4.286,12.555-11.88,12.555-11.88-5.569-11.88-12.555,4.287-12.555,11.88-12.555" transform="translate(-61.197 -39.235)"/></g></g></svg>